<svg width="16" height="16" viewBox="0 0 16 16" fill="none" xmlns="http://www.w3.org/2000/svg">
<rect width="16" height="16" fill="white"/>
<path d="M13.7737 1.09866C12.9673 0.293651 11.6614 0.293651 10.855 1.09866L10.1243 1.83329L2.34682 9.60667L2.3303 9.62333C2.32629 9.62733 2.32629 9.63159 2.32203 9.63159C2.31377 9.64399 2.30137 9.65625 2.29323 9.66865C2.29323 9.67278 2.28897 9.67278 2.28897 9.67692C2.28071 9.68931 2.27671 9.69758 2.26831 9.70997C2.26431 9.71411 2.26431 9.71811 2.26018 9.72237C2.25604 9.73477 2.25191 9.74303 2.24765 9.75543C2.24765 9.75943 2.24365 9.75943 2.24365 9.76369L0.518054 14.9527C0.467434 15.1005 0.505915 15.2641 0.617098 15.3737C0.695223 15.4508 0.800595 15.4939 0.910228 15.4935C0.955037 15.4928 0.999459 15.4858 1.04233 15.4729L6.22738 13.7432C6.23138 13.7432 6.23138 13.7432 6.23564 13.7392C6.24868 13.7353 6.26121 13.7297 6.2727 13.7225C6.27593 13.7221 6.27877 13.7207 6.2811 13.7185C6.29336 13.7102 6.30989 13.7018 6.32229 13.6936C6.33456 13.6854 6.34708 13.673 6.35948 13.6648C6.36361 13.6605 6.36761 13.6605 6.36761 13.6565C6.37188 13.6524 6.38014 13.6484 6.38427 13.64L14.8924 5.13185C15.6974 4.32542 15.6974 3.0195 14.8924 2.2132L13.7737 1.09866ZM6.09527 12.773L3.22208 9.89993L10.4133 2.70868L13.2865 5.58174L6.09527 12.773ZM2.81738 10.6636L5.32745 13.1736L1.55834 14.4285L2.81738 10.6636ZM14.3104 4.55385L13.8728 4.99561L10.9995 2.12229L11.4413 1.68066C11.9247 1.19771 12.7081 1.19771 13.1916 1.68066L14.3144 2.80346C14.7941 3.289 14.7923 4.07064 14.3104 4.55385Z" fill="black"/>
</svg>
